<svg width="144" height="34" viewBox="0 0 144 34" fill="none" xmlns="http://www.w3.org/2000/svg">
<g clip-path="url(#clip0_39_119)">
<mask id="mask0_39_119" style="mask-type:alpha" maskUnits="userSpaceOnUse" x="0" y="0" width="144" height="34">
<path d="M144 0H0V34H144V0Z" fill="white"/>
</mask>
<g mask="url(#mask0_39_119)">
<path d="M52.0457 12.9758H56.05C57.6081 12.9758 58.7622 13.1838 59.5124 13.5996C60.2676 14.0155 60.6465 14.6641 60.6465 15.5433C60.6465 16.1218 60.4809 16.6167 60.1547 17.0257C59.8261 17.4371 59.3945 17.7015 58.8601 17.8213V17.8936C59.5676 18.0631 60.0795 18.3456 60.3956 18.7433C60.7168 19.1366 60.8773 19.6474 60.8773 20.2801C60.8773 21.2158 60.4859 21.9526 59.7031 22.495C58.9253 23.0329 57.8615 23.2995 56.5117 23.2995H52.0457V12.9758ZM55.1468 16.9354H56.0801C56.5217 16.9354 56.8629 16.854 57.1038 16.6913C57.3497 16.5241 57.4751 16.2754 57.4751 15.95C57.4751 15.3715 56.9884 15.0822 56.0199 15.0822H55.1468V16.9354ZM55.1468 18.9784V21.148H56.2407C57.2042 21.148 57.6859 20.7819 57.6859 20.0451C57.6859 19.7016 57.5554 19.4395 57.2945 19.2587C57.0386 19.0733 56.6647 18.9784 56.1704 18.9784H55.1468Z" fill="#2B4EFF"/>
<path d="M64.4697 23.2995V12.9758H67.5909V23.2995H64.4697Z" fill="#2B4EFF"/>
<path d="M71.665 23.2995V12.9758H74.7662V21.0485H79.182V23.2995H71.665Z" fill="#2B4EFF"/>
<path d="M82.6152 23.2995V12.9758H85.7364V23.2995H82.6152Z" fill="#2B4EFF"/>
<path d="M94.8085 23.2995L92.4701 15.8596H92.3898C92.5027 17.1252 92.5604 18.1106 92.5604 18.8157V23.2995H89.8105V12.9758H93.9353L96.334 20.3073H96.394L98.743 12.9758H102.867V23.2995H100.027V18.7705C100.027 18.5354 100.03 18.2778 100.037 17.993C100.042 17.7038 100.077 16.9986 100.138 15.8777H100.067L97.759 23.2995H94.8085Z" fill="#2B4EFF"/>
<path d="M113.968 23.2996L113.406 21.365H109.682L109.1 23.2996H105.698L109.441 12.9307H113.566L117.36 23.2996H113.968ZM112.763 19.0779L112.272 17.3784C112.156 17.0055 112.016 16.5195 111.85 15.9229C111.682 15.3217 111.572 14.8901 111.519 14.6302C111.471 14.872 111.378 15.2698 111.238 15.8235C111.102 16.3727 110.799 17.4574 110.325 19.0779H112.763Z" fill="#050A30"/>
<path d="M120.195 23.2995V12.9758H123.296V21.0485H127.712V23.2995H120.195Z" fill="#050A30"/>
<path d="M131.146 23.2995V12.9758H134.247V21.0485H138.663V23.2995H131.146Z" fill="#050A30"/>
<mask id="mask1_39_119" style="mask-type:alpha" maskUnits="userSpaceOnUse" x="1" y="0" width="46" height="34">
<path d="M1.18555 0.12207H46.1855V33.2928H1.18555V0.12207Z" fill="white"/>
</mask>
<g mask="url(#mask1_39_119)">
<path d="M27.343 0.152344L27.9289 0.312913L44.8361 4.79462L46.1857 5.17266V7.81901L45.0116 8.2499L29.2216 13.9735L28.8682 14.0812H18.4198L18.1257 13.9735L8.14473 10.5182H8.08767C6.43075 9.90847 4.85723 10.9024 4.85723 12.5162V12.6768C4.85723 13.6727 5.40588 14.4288 6.44392 14.8902C6.48562 14.9105 6.51634 14.9267 6.56024 14.9451L23.6429 20.884L37.7914 15.9166C41.7724 14.4532 46.1857 17.2377 46.1857 21.1544V21.315C46.1857 23.7336 44.5091 25.7926 42.2531 26.7133H42.1937L42.1367 26.7682L24.2903 32.9776L23.6429 33.193L22.9977 32.9776L11.1403 28.819L11.1974 28.7113L1.1001 25.3109V21.5303L12.49 25.5812V25.6341H12.5492L23.6429 29.5222L40.7278 23.5833L40.8441 23.5284C41.8822 23.067 42.4286 22.3109 42.4286 21.315V21.1544C42.4286 19.5406 40.8572 18.5467 39.2003 19.1564H39.1411L24.2903 24.3393L23.6429 24.5548L22.9977 24.3393L5.1513 18.13L5.09206 18.0751H5.035C2.77676 17.1544 1.1001 15.0954 1.1001 12.6768V12.5162C1.1001 9.79466 3.27494 7.75194 5.91503 7.17063V7.11576L6.50098 6.95519L26.7549 0.367791L27.343 0.152344ZM27.4001 3.82308L12.9596 8.46535L19.1243 10.626H19.1814L23.6429 7.87186L28.1045 10.626L38.7307 6.79259L27.4001 3.82308Z" fill="#2B4EFF"/>
</g>
</g>
</g>
<defs>
<clipPath id="clip0_39_119">
<rect width="144" height="34" fill="white"/>
</clipPath>
</defs>
</svg>
